<svg width="29" height="21" viewBox="0 0 29 21" fill="none" xmlns="http://www.w3.org/2000/svg">
<rect x="9" y="6" width="11" height="10" fill="white"/>
<path d="M27.6902 3.90414C27.3739 2.72439 26.4458 1.79351 25.2674 1.47589C23.1142 0.884635 14.4998 0.87501 14.4998 0.87501C14.4998 0.87501 5.88678 0.865385 3.73216 1.43051C2.57716 1.74539 1.62291 2.69689 1.30391 3.87526C0.736032 6.02851 0.730532 10.4945 0.730532 10.4945C0.730532 10.4945 0.725032 14.9825 1.28878 17.1138C1.60503 18.2921 2.53316 19.223 3.71291 19.5406C5.88816 20.1319 14.4792 20.1415 14.4792 20.1415C14.4792 20.1415 23.0935 20.1511 25.2468 19.5874C26.4238 19.2711 27.356 18.3416 27.6764 17.1633C28.2457 15.0114 28.2498 10.5468 28.2498 10.5468C28.2498 10.5468 28.2773 6.05739 27.6902 3.90414ZM11.7443 14.6319L11.7512 6.38189L18.9108 10.5138L11.7443 14.6319Z" fill="#D03A2C"/>
</svg>
